<svg width="55" height="55" viewBox="0 0 55 55" fill="none" xmlns="http://www.w3.org/2000/svg">
<rect width="55" height="55" fill="#1E1E1E"/>
<g id="Web" clip-path="url(#clip0_1_2)">
<rect width="1920" height="5871" transform="translate(-246 -266)" fill="#FBFBFB"/>
<g id="Frame 2147226541">
<g id="Group 1171274637">
<circle id="Ellipse 26" cx="-5.5" cy="27.5" r="27.5" fill="#FFC7CF"/>
<circle id="Ellipse 27" cx="27.5" cy="27.5" r="27.5" fill="#CE4E61"/>
<path id="New Spring 2025 Collections" d="M34.04 23V6.992H36.008L45.992 21.08L45.56 21.752V6.992H47.288V23H45.344L34.976 8.384L35.768 7.64V23H34.04ZM55.2243 23.36C54.0883 23.36 53.1043 23.128 52.2723 22.664C51.4403 22.184 50.8003 21.472 50.3523 20.528C49.9043 19.584 49.6803 18.408 49.6803 17C49.6803 14.936 50.1443 13.392 51.0723 12.368C52.0163 11.328 53.3043 10.808 54.9363 10.808C56.2163 10.808 57.2403 11.096 58.0083 11.672C58.7923 12.248 59.3523 13.024 59.6883 14C60.0243 14.976 60.1843 16.08 60.1683 17.312H50.5443L50.6643 15.728H59.0403L58.3683 15.968C58.3203 14.768 58.0163 13.872 57.4563 13.28C56.9123 12.688 56.0723 12.392 54.9363 12.392C54.1523 12.392 53.4963 12.536 52.9683 12.824C52.4563 13.112 52.0723 13.616 51.8163 14.336C51.5603 15.04 51.4323 16.032 51.4323 17.312C51.4323 18.768 51.7683 19.88 52.4403 20.648C53.1283 21.4 54.0883 21.776 55.3203 21.776C55.9123 21.776 56.4563 21.736 56.9523 21.656C57.4483 21.56 57.9043 21.432 58.3203 21.272C58.7363 21.112 59.1043 20.936 59.4243 20.744V22.52C58.8483 22.792 58.2083 23 57.5043 23.144C56.8163 23.288 56.0563 23.36 55.2243 23.36ZM65.3493 23L61.3653 11.024H63.1893L66.5253 21.704L66.0693 21.896L69.2373 11.024H70.8933L74.0853 21.608H73.7493L77.0853 11.024H78.7893L74.8053 23H73.0533L69.8613 12.392L70.1733 12.68L67.1013 23H65.3493ZM91.2438 23.24C90.4438 23.24 89.7638 23.184 89.2038 23.072C88.6438 22.96 88.1398 22.8 87.6918 22.592C87.2438 22.384 86.7558 22.144 86.2278 21.872V20C86.7398 20.432 87.4278 20.816 88.2918 21.152C89.1558 21.488 90.1638 21.656 91.3158 21.656C92.5318 21.656 93.4118 21.4 93.9558 20.888C94.5158 20.36 94.7958 19.696 94.7958 18.896C94.7958 18.224 94.6118 17.688 94.2438 17.288C93.8758 16.872 93.4038 16.536 92.8278 16.28C92.2518 16.008 91.6438 15.752 91.0038 15.512C90.4598 15.32 89.9158 15.12 89.3718 14.912C88.8438 14.688 88.3638 14.416 87.9318 14.096C87.4998 13.76 87.1558 13.336 86.8998 12.824C86.6438 12.296 86.5158 11.64 86.5158 10.856C86.5158 10.424 86.5958 9.968 86.7558 9.488C86.9318 9.008 87.2038 8.56 87.5718 8.144C87.9558 7.728 88.4598 7.392 89.0838 7.136C89.7238 6.88 90.4998 6.752 91.4118 6.752C92.0358 6.752 92.5638 6.8 92.9958 6.896C93.4438 6.976 93.8678 7.104 94.2678 7.28C94.6678 7.44 95.1158 7.64 95.6118 7.88V9.656C95.1958 9.416 94.7958 9.2 94.4118 9.008C94.0438 8.8 93.6278 8.64 93.1638 8.528C92.7158 8.4 92.1638 8.336 91.5078 8.336C90.7238 8.336 90.0918 8.448 89.6118 8.672C89.1478 8.896 88.8038 9.192 88.5798 9.56C88.3718 9.928 88.2678 10.32 88.2678 10.736C88.2678 11.392 88.4118 11.912 88.6998 12.296C89.0038 12.68 89.4198 13 89.9478 13.256C90.4918 13.496 91.1158 13.736 91.8198 13.976C92.3798 14.168 92.9398 14.384 93.4998 14.624C94.0598 14.848 94.5638 15.136 95.0118 15.488C95.4758 15.824 95.8438 16.256 96.1158 16.784C96.4038 17.296 96.5478 17.936 96.5478 18.704C96.5478 19.424 96.3878 20.136 96.0678 20.84C95.7478 21.528 95.2038 22.104 94.4358 22.568C93.6678 23.016 92.6038 23.24 91.2438 23.24ZM103.644 23.336C103.292 23.336 102.892 23.288 102.444 23.192C102.012 23.096 101.588 22.976 101.172 22.832C100.756 22.688 100.388 22.536 100.068 22.376L100.668 21.776V28.208H98.9403V13.184C98.9403 12.688 99.0923 12.288 99.3963 11.984C99.7163 11.68 100.124 11.448 100.62 11.288C101.116 11.112 101.644 10.992 102.204 10.928C102.764 10.848 103.292 10.808 103.788 10.808C104.748 10.808 105.652 11.008 106.5 11.408C107.348 11.808 108.036 12.488 108.564 13.448C109.092 14.392 109.356 15.68 109.356 17.312C109.356 18.544 109.132 19.616 108.684 20.528C108.252 21.424 107.612 22.12 106.764 22.616C105.916 23.096 104.876 23.336 103.644 23.336ZM103.644 21.752C104.524 21.752 105.244 21.568 105.804 21.2C106.38 20.816 106.812 20.288 107.1 19.616C107.388 18.944 107.532 18.176 107.532 17.312C107.532 16.448 107.436 15.64 107.244 14.888C107.052 14.136 106.684 13.536 106.14 13.088C105.596 12.624 104.804 12.392 103.764 12.392C102.932 12.392 102.204 12.488 101.58 12.68C100.972 12.872 100.668 13.144 100.668 13.496V20.912C101.164 21.2 101.66 21.416 102.156 21.56C102.652 21.688 103.148 21.752 103.644 21.752ZM111.644 23V11.984C111.836 11.904 112.204 11.768 112.748 11.576C113.308 11.384 113.972 11.208 114.74 11.048C115.524 10.888 116.332 10.808 117.164 10.808C117.292 10.808 117.42 10.824 117.548 10.856C117.676 10.888 117.804 10.92 117.932 10.952V12.488C117.516 12.44 117.108 12.416 116.708 12.416C116.324 12.416 115.948 12.44 115.58 12.488C115.212 12.52 114.844 12.568 114.476 12.632C114.108 12.696 113.74 12.76 113.372 12.824V23H111.644ZM119.827 23V11.024H121.555V23H119.827ZM119.731 8.888V6.992H121.651V8.888H119.731ZM124.537 11.984C124.921 11.792 125.313 11.624 125.713 11.48C126.129 11.32 126.545 11.192 126.961 11.096C127.393 11 127.825 10.928 128.257 10.88C128.705 10.832 129.153 10.808 129.601 10.808C130.769 10.808 131.697 10.984 132.385 11.336C133.073 11.672 133.569 12.168 133.873 12.824C134.193 13.48 134.353 14.272 134.353 15.2V23H132.625V15.2C132.625 14.912 132.585 14.608 132.505 14.288C132.441 13.968 132.305 13.664 132.097 13.376C131.889 13.072 131.569 12.832 131.137 12.656C130.705 12.464 130.129 12.368 129.409 12.368C128.913 12.368 128.401 12.408 127.873 12.488C127.345 12.568 126.809 12.688 126.265 12.848V23H124.537V11.984ZM142.113 23.36C140.881 23.36 139.857 23.12 139.041 22.64C138.241 22.144 137.641 21.448 137.241 20.552C136.841 19.64 136.641 18.568 136.641 17.336C136.641 15.96 136.825 14.848 137.193 14C137.561 13.136 138.033 12.48 138.609 12.032C139.201 11.568 139.841 11.256 140.529 11.096C141.233 10.92 141.913 10.832 142.569 10.832C143.321 10.832 144.033 10.936 144.705 11.144C145.393 11.336 145.953 11.648 146.385 12.08C146.833 12.512 147.057 13.088 147.057 13.808V23.504C147.057 23.984 146.985 24.472 146.841 24.968C146.697 25.464 146.433 25.92 146.049 26.336C145.681 26.768 145.153 27.112 144.465 27.368C143.793 27.624 142.921 27.752 141.849 27.752C141.161 27.752 140.529 27.688 139.953 27.56C139.377 27.432 138.873 27.312 138.441 27.2V25.568C138.697 25.632 138.985 25.704 139.305 25.784C139.641 25.88 140.001 25.96 140.385 26.024C140.785 26.088 141.209 26.12 141.657 26.12C142.745 26.12 143.545 25.984 144.057 25.712C144.585 25.456 144.929 25.128 145.089 24.728C145.249 24.344 145.329 23.952 145.329 23.552V21.8L145.929 22.4C145.625 22.56 145.241 22.712 144.777 22.856C144.313 23 143.841 23.12 143.361 23.216C142.881 23.312 142.465 23.36 142.113 23.36ZM142.113 21.776C142.625 21.776 143.161 21.712 143.721 21.584C144.297 21.44 144.833 21.224 145.329 20.936V14.048C145.329 13.6 145.201 13.264 144.945 13.04C144.705 12.8 144.377 12.64 143.961 12.56C143.545 12.464 143.097 12.416 142.617 12.416C141.449 12.416 140.569 12.648 139.977 13.112C139.385 13.56 138.985 14.16 138.777 14.912C138.569 15.664 138.465 16.472 138.465 17.336C138.465 18.648 138.745 19.72 139.305 20.552C139.865 21.368 140.801 21.776 142.113 21.776ZM155.874 23V21.488C156.418 21.088 157.042 20.592 157.746 20C158.466 19.408 159.186 18.76 159.906 18.056C160.642 17.336 161.314 16.592 161.922 15.824C162.546 15.04 163.05 14.264 163.434 13.496C163.818 12.728 164.01 11.992 164.01 11.288C164.01 10.856 163.914 10.432 163.722 10.016C163.53 9.584 163.162 9.224 162.618 8.936C162.074 8.648 161.282 8.504 160.242 8.504C159.282 8.504 158.442 8.664 157.722 8.984C157.018 9.304 156.458 9.608 156.042 9.896V8C156.554 7.68 157.17 7.4 157.89 7.16C158.626 6.904 159.458 6.776 160.386 6.776C161.698 6.776 162.746 7 163.53 7.448C164.314 7.896 164.874 8.464 165.21 9.152C165.562 9.84 165.738 10.552 165.738 11.288C165.738 12.008 165.554 12.76 165.186 13.544C164.834 14.328 164.362 15.112 163.77 15.896C163.194 16.68 162.554 17.44 161.85 18.176C161.146 18.912 160.442 19.6 159.738 20.24C159.034 20.864 158.394 21.408 157.818 21.872L157.314 21.272H165.978V23H155.874ZM174.763 23.264C172.683 23.264 171.107 22.576 170.035 21.2C168.979 19.824 168.451 17.776 168.451 15.056C168.451 12.336 168.979 10.288 170.035 8.912C171.107 7.536 172.683 6.848 174.763 6.848C176.859 6.848 178.435 7.536 179.491 8.912C180.547 10.288 181.075 12.336 181.075 15.056C181.075 17.776 180.547 19.824 179.491 21.2C178.435 22.576 176.859 23.264 174.763 23.264ZM174.763 21.68C175.291 21.68 175.827 21.608 176.371 21.464C176.915 21.32 177.411 21.024 177.859 20.576C178.307 20.128 178.667 19.464 178.939 18.584C179.211 17.704 179.347 16.528 179.347 15.056C179.347 13.584 179.211 12.408 178.939 11.528C178.667 10.648 178.307 9.992 177.859 9.56C177.411 9.112 176.915 8.816 176.371 8.672C175.827 8.512 175.291 8.432 174.763 8.432C174.235 8.432 173.699 8.512 173.155 8.672C172.611 8.816 172.115 9.112 171.667 9.56C171.219 9.992 170.859 10.648 170.587 11.528C170.315 12.408 170.179 13.584 170.179 15.056C170.179 16.528 170.315 17.704 170.587 18.584C170.859 19.464 171.219 20.128 171.667 20.576C172.115 21.024 172.611 21.32 173.155 21.464C173.699 21.608 174.235 21.68 174.763 21.68ZM183.415 23V21.488C183.959 21.088 184.583 20.592 185.287 20C186.007 19.408 186.727 18.76 187.447 18.056C188.183 17.336 188.855 16.592 189.463 15.824C190.087 15.04 190.591 14.264 190.975 13.496C191.359 12.728 191.551 11.992 191.551 11.288C191.551 10.856 191.455 10.432 191.263 10.016C191.071 9.584 190.703 9.224 190.159 8.936C189.615 8.648 188.823 8.504 187.783 8.504C186.823 8.504 185.983 8.664 185.263 8.984C184.559 9.304 183.999 9.608 183.583 9.896V8C184.095 7.68 184.711 7.4 185.431 7.16C186.167 6.904 186.999 6.776 187.927 6.776C189.239 6.776 190.287 7 191.071 7.448C191.855 7.896 192.415 8.464 192.751 9.152C193.103 9.84 193.279 10.552 193.279 11.288C193.279 12.008 193.095 12.76 192.727 13.544C192.375 14.328 191.903 15.112 191.311 15.896C190.735 16.68 190.095 17.44 189.391 18.176C188.687 18.912 187.983 19.6 187.279 20.24C186.575 20.864 185.935 21.408 185.359 21.872L184.855 21.272H193.519V23H183.415ZM201.608 23.192C200.536 23.192 199.624 23.096 198.872 22.904C198.136 22.696 197.52 22.464 197.024 22.208V20.408C197.248 20.536 197.552 20.688 197.936 20.864C198.336 21.04 198.832 21.192 199.424 21.32C200.016 21.448 200.704 21.512 201.488 21.512C202.304 21.512 202.944 21.408 203.408 21.2C203.888 20.976 204.24 20.696 204.464 20.36C204.688 20.008 204.832 19.64 204.896 19.256C204.96 18.856 204.992 18.472 204.992 18.104C204.992 17.096 204.816 16.36 204.464 15.896C204.128 15.416 203.688 15.104 203.144 14.96C202.616 14.816 202.064 14.744 201.488 14.744C200.64 14.744 199.936 14.808 199.376 14.936C198.816 15.048 198.4 15.168 198.128 15.296C197.856 15.424 197.72 15.488 197.72 15.488L196.64 14.384L197.456 6.992H205.688V8.696H198.944L198.488 13.856L196.784 14.144C197.392 13.776 198.128 13.496 198.992 13.304C199.856 13.112 200.728 13.016 201.608 13.016C202.184 13.016 202.768 13.088 203.36 13.232C203.968 13.376 204.52 13.632 205.016 14C205.528 14.352 205.936 14.864 206.24 15.536C206.544 16.192 206.696 17.048 206.696 18.104C206.696 19.16 206.544 20.024 206.24 20.696C205.936 21.352 205.528 21.864 205.016 22.232C204.52 22.584 203.968 22.832 203.36 22.976C202.768 23.12 202.184 23.192 201.608 23.192ZM40.736 48.192C38.272 48.192 36.416 47.504 35.168 46.128C33.936 44.752 33.32 42.704 33.32 39.984C33.32 37.264 33.936 35.216 35.168 33.84C36.416 32.464 38.272 31.776 40.736 31.776C41.584 31.776 42.416 31.88 43.232 32.088C44.048 32.296 44.84 32.584 45.608 32.952V34.608C44.872 34.208 44.112 33.912 43.328 33.72C42.544 33.512 41.744 33.408 40.928 33.408C39.584 33.408 38.48 33.64 37.616 34.104C36.768 34.568 36.136 35.288 35.72 36.264C35.32 37.224 35.12 38.464 35.12 39.984C35.12 41.504 35.32 42.752 35.72 43.728C36.136 44.688 36.768 45.4 37.616 45.864C38.48 46.328 39.584 46.56 40.928 46.56C41.744 46.56 42.544 46.464 43.328 46.272C44.112 46.08 44.872 45.784 45.608 45.384V47.04C45.096 47.28 44.568 47.488 44.024 47.664C43.496 47.84 42.952 47.968 42.392 48.048C41.848 48.144 41.296 48.192 40.736 48.192ZM52.8097 48.36C50.9377 48.36 49.5457 47.808 48.6337 46.704C47.7377 45.584 47.2897 44.032 47.2897 42.048C47.2897 39.968 47.7617 38.408 48.7057 37.368C49.6657 36.328 51.0177 35.808 52.7617 35.808C54.0577 35.808 55.1137 36.072 55.9297 36.6C56.7457 37.112 57.3457 37.84 57.7297 38.784C58.1137 39.712 58.3057 40.8 58.3057 42.048C58.3057 44.016 57.8257 45.56 56.8657 46.68C55.9217 47.8 54.5697 48.36 52.8097 48.36ZM52.7857 46.776C53.7617 46.776 54.5217 46.568 55.0657 46.152C55.6097 45.72 55.9937 45.152 56.2177 44.448C56.4577 43.728 56.5777 42.928 56.5777 42.048C56.5777 41.104 56.4577 40.288 56.2177 39.6C55.9777 38.896 55.5777 38.352 55.0177 37.968C54.4737 37.584 53.7297 37.392 52.7857 37.392C51.8257 37.392 51.0737 37.6 50.5297 38.016C49.9857 38.432 49.5937 38.992 49.3537 39.696C49.1297 40.384 49.0177 41.168 49.0177 42.048C49.0177 43.456 49.2977 44.6 49.8577 45.48C50.4177 46.344 51.3937 46.776 52.7857 46.776ZM62.3218 48H60.5938V31.464H62.3218V48ZM66.9399 48H65.2119V31.464H66.9399V48ZM74.774 48.36C73.638 48.36 72.654 48.128 71.822 47.664C70.99 47.184 70.35 46.472 69.902 45.528C69.454 44.584 69.23 43.408 69.23 42C69.23 39.936 69.694 38.392 70.622 37.368C71.566 36.328 72.854 35.808 74.486 35.808C75.766 35.808 76.79 36.096 77.558 36.672C78.342 37.248 78.902 38.024 79.238 39C79.574 39.976 79.734 41.08 79.718 42.312H70.094L70.214 40.728H78.59L77.918 40.968C77.87 39.768 77.566 38.872 77.006 38.28C76.462 37.688 75.622 37.392 74.486 37.392C73.702 37.392 73.046 37.536 72.518 37.824C72.006 38.112 71.622 38.616 71.366 39.336C71.11 40.04 70.982 41.032 70.982 42.312C70.982 43.768 71.318 44.88 71.99 45.648C72.678 46.4 73.638 46.776 74.87 46.776C75.462 46.776 76.006 46.736 76.502 46.656C76.998 46.56 77.454 46.432 77.87 46.272C78.286 46.112 78.654 45.936 78.974 45.744V47.52C78.398 47.792 77.758 48 77.054 48.144C76.366 48.288 75.606 48.36 74.774 48.36ZM87.011 48.192C86.371 48.192 85.715 48.112 85.043 47.952C84.387 47.776 83.779 47.472 83.219 47.04C82.675 46.592 82.235 45.96 81.899 45.144C81.563 44.328 81.395 43.28 81.395 42C81.395 40.72 81.563 39.68 81.899 38.88C82.235 38.064 82.675 37.432 83.219 36.984C83.779 36.536 84.387 36.232 85.043 36.072C85.715 35.896 86.371 35.808 87.011 35.808C87.619 35.808 88.219 35.864 88.811 35.976C89.419 36.088 90.003 36.256 90.563 36.48V38.136C90.035 37.912 89.491 37.744 88.931 37.632C88.371 37.52 87.795 37.464 87.203 37.464C85.779 37.464 84.739 37.824 84.083 38.544C83.443 39.264 83.123 40.416 83.123 42C83.123 43.6 83.443 44.76 84.083 45.48C84.739 46.184 85.779 46.536 87.203 46.536C87.795 46.536 88.371 46.48 88.931 46.368C89.491 46.256 90.035 46.088 90.563 45.864V47.544C90.003 47.752 89.419 47.912 88.811 48.024C88.219 48.136 87.619 48.192 87.011 48.192ZM96.6155 48.192C95.7675 48.192 95.0555 47.936 94.4795 47.424C93.9035 46.896 93.6155 46.12 93.6155 45.096V37.608H91.5275V36.024H93.6155V32.64H95.3435V36.024H98.4395V37.608H95.3435V44.544C95.3435 45.216 95.4475 45.72 95.6555 46.056C95.8635 46.392 96.2875 46.56 96.9275 46.56C97.2155 46.56 97.4955 46.536 97.7675 46.488C98.0395 46.424 98.2635 46.352 98.4395 46.272V47.904C98.2155 47.984 97.9275 48.048 97.5755 48.096C97.2395 48.16 96.9195 48.192 96.6155 48.192ZM100.702 48V36.024H102.43V48H100.702ZM100.606 33.888V31.992H102.526V33.888H100.606ZM110.332 48.36C108.46 48.36 107.068 47.808 106.156 46.704C105.26 45.584 104.812 44.032 104.812 42.048C104.812 39.968 105.284 38.408 106.228 37.368C107.188 36.328 108.54 35.808 110.284 35.808C111.58 35.808 112.636 36.072 113.452 36.6C114.268 37.112 114.868 37.84 115.252 38.784C115.636 39.712 115.828 40.8 115.828 42.048C115.828 44.016 115.348 45.56 114.388 46.68C113.444 47.8 112.092 48.36 110.332 48.36ZM110.308 46.776C111.284 46.776 112.044 46.568 112.588 46.152C113.132 45.72 113.516 45.152 113.74 44.448C113.98 43.728 114.1 42.928 114.1 42.048C114.1 41.104 113.98 40.288 113.74 39.6C113.5 38.896 113.1 38.352 112.54 37.968C111.996 37.584 111.252 37.392 110.308 37.392C109.348 37.392 108.596 37.6 108.052 38.016C107.508 38.432 107.116 38.992 106.876 39.696C106.652 40.384 106.54 41.168 106.54 42.048C106.54 43.456 106.82 44.6 107.38 45.48C107.94 46.344 108.916 46.776 110.308 46.776ZM118.116 36.984C118.5 36.792 118.892 36.624 119.292 36.48C119.708 36.32 120.124 36.192 120.54 36.096C120.972 36 121.404 35.928 121.836 35.88C122.284 35.832 122.732 35.808 123.18 35.808C124.348 35.808 125.276 35.984 125.964 36.336C126.652 36.672 127.148 37.168 127.452 37.824C127.772 38.48 127.932 39.272 127.932 40.2V48H126.204V40.2C126.204 39.912 126.164 39.608 126.084 39.288C126.02 38.968 125.884 38.664 125.676 38.376C125.468 38.072 125.148 37.832 124.716 37.656C124.284 37.464 123.708 37.368 122.988 37.368C122.492 37.368 121.98 37.408 121.452 37.488C120.924 37.568 120.388 37.688 119.844 37.848V48H118.116V36.984ZM134.204 48.36C133.34 48.36 132.612 48.272 132.02 48.096C131.444 47.92 130.844 47.672 130.22 47.352V45.528C130.716 45.8 131.156 46.032 131.54 46.224C131.924 46.416 132.316 46.56 132.716 46.656C133.116 46.736 133.572 46.776 134.084 46.776C134.884 46.776 135.532 46.6 136.028 46.248C136.54 45.896 136.796 45.44 136.796 44.88C136.796 44.432 136.668 44.088 136.412 43.848C136.172 43.608 135.86 43.408 135.476 43.248C135.092 43.088 134.692 42.92 134.276 42.744C133.812 42.616 133.34 42.48 132.86 42.336C132.396 42.176 131.964 41.976 131.564 41.736C131.18 41.48 130.868 41.16 130.628 40.776C130.388 40.376 130.268 39.864 130.268 39.24C130.268 38.632 130.388 38.112 130.628 37.68C130.884 37.248 131.212 36.896 131.612 36.624C132.012 36.336 132.46 36.128 132.956 36C133.452 35.872 133.948 35.808 134.444 35.808C135.164 35.808 135.78 35.904 136.292 36.096C136.804 36.288 137.332 36.504 137.876 36.744V38.472C137.268 38.152 136.724 37.896 136.244 37.704C135.764 37.496 135.196 37.392 134.54 37.392C133.884 37.392 133.292 37.528 132.764 37.8C132.252 38.056 131.996 38.456 131.996 39C131.996 39.448 132.124 39.808 132.38 40.08C132.652 40.336 133.004 40.544 133.436 40.704C133.868 40.848 134.332 40.992 134.828 41.136C135.228 41.264 135.644 41.408 136.076 41.568C136.508 41.712 136.908 41.912 137.276 42.168C137.644 42.408 137.94 42.728 138.164 43.128C138.404 43.528 138.524 44.04 138.524 44.664C138.524 45.512 138.308 46.216 137.876 46.776C137.444 47.32 136.892 47.72 136.22 47.976C135.564 48.232 134.892 48.36 134.204 48.36Z" fill="#1D1818"/>
</g>
</g>
</g>
<defs>
<clipPath id="clip0_1_2">
<rect width="1920" height="5871" fill="white" transform="translate(-246 -266)"/>
</clipPath>
</defs>
</svg>
